<svg width="46" height="46" viewBox="0 0 46 46" fill="none" xmlns="http://www.w3.org/2000/svg">
<circle cx="23" cy="23" r="23" fill="url(#paint0_linear)"/>
<path fill-rule="evenodd" clip-rule="evenodd" d="M12.4583 17.3691C12.4583 16.185 13.4006 15.2084 14.5833 15.2084H29.5833C30.7661 15.2084 31.7083 16.185 31.7083 17.3691V22.0834C31.7083 22.3365 31.5031 22.5417 31.25 22.5417C30.9969 22.5417 30.7917 22.3365 30.7917 22.0834V17.3691C30.7917 16.6728 30.2416 16.125 29.5833 16.125H14.5833C13.9251 16.125 13.375 16.6728 13.375 17.3691V25.881C13.375 26.5772 13.9251 27.125 14.5833 27.125H21.1667C21.4198 27.125 21.625 27.3303 21.625 27.5834C21.625 27.8365 21.4198 28.0417 21.1667 28.0417H14.5833C13.4006 28.0417 12.4583 27.0651 12.4583 25.881V17.3691Z" fill="white"/>
<path fill-rule="evenodd" clip-rule="evenodd" d="M12.4583 18.4167C12.4583 18.1636 12.6635 17.9584 12.9167 17.9584H31.25C31.5031 17.9584 31.7083 18.1636 31.7083 18.4167C31.7083 18.6698 31.5031 18.875 31.25 18.875H12.9167C12.6635 18.875 12.4583 18.6698 12.4583 18.4167Z" fill="white"/>
<path fill-rule="evenodd" clip-rule="evenodd" d="M14.2917 23.0001C14.2917 22.747 14.4969 22.5417 14.75 22.5417H16.5834C16.8365 22.5417 17.0417 22.747 17.0417 23.0001C17.0417 23.2532 16.8365 23.4584 16.5834 23.4584H14.75C14.4969 23.4584 14.2917 23.2532 14.2917 23.0001Z" fill="white"/>
<path fill-rule="evenodd" clip-rule="evenodd" d="M14.2917 25.2918C14.2917 25.0387 14.4969 24.8335 14.75 24.8335H18.4167C18.6698 24.8335 18.875 25.0387 18.875 25.2918C18.875 25.5449 18.6698 25.7502 18.4167 25.7502H14.75C14.4969 25.7502 14.2917 25.5449 14.2917 25.2918Z" fill="white"/>
<path fill-rule="evenodd" clip-rule="evenodd" d="M28.5 24.3752C26.2218 24.3752 24.375 26.222 24.375 28.5002C24.375 30.7783 26.2218 32.6251 28.5 32.6251C30.7782 32.6251 32.625 30.7783 32.625 28.5002C32.625 26.222 30.7782 24.3752 28.5 24.3752ZM23.4583 28.5002C23.4583 25.7157 25.7155 23.4585 28.5 23.4585C31.2845 23.4585 33.5417 25.7157 33.5417 28.5002C33.5417 31.2846 31.2845 33.5418 28.5 33.5418C25.7155 33.5418 23.4583 31.2846 23.4583 28.5002Z" fill="white"/>
<path fill-rule="evenodd" clip-rule="evenodd" d="M30.0092 27.7177C30.1883 27.5388 30.4785 27.5388 30.6575 27.7177C30.8364 27.8967 30.8364 28.1869 30.6575 28.366L28.8242 30.1993C28.6451 30.3782 28.3549 30.3782 28.1759 30.1993L26.8009 28.8243C26.622 28.6453 26.622 28.3551 26.8009 28.176C26.9799 27.9971 27.2701 27.9971 27.4492 28.176L28.5 29.227L30.0092 27.7177Z" fill="white"/>
<defs>
<linearGradient id="paint0_linear" x1="-6.85453e-07" y1="46" x2="53.6955" y2="33.7604" gradientUnits="userSpaceOnUse">
<stop stop-color="#65E1FE"/>
<stop offset="1" stop-color="#1EB5D8"/>
</linearGradient>
</defs>
</svg>
