<svg width="46" height="46" viewBox="0 0 46 46" fill="none" xmlns="http://www.w3.org/2000/svg">
<circle cx="23" cy="23" r="23" fill="url(#paint0_linear)"/>
<g clip-path="url(#clip0)">
<path d="M30.7383 26.812C31.0458 25.9636 31.2019 25.0576 31.2019 24.1138V15.3663C31.2019 15.2306 31.1378 15.103 31.0291 15.0219C30.9205 14.9407 30.7799 14.9157 30.6499 14.9543C27.9934 15.7431 23.7699 15.1171 22.9256 12.3061C22.871 12.1244 22.7039 12 22.5142 12C22.5142 12 22.5142 12 22.5141 12C22.3245 12 22.1573 12.1244 22.1026 12.3059C21.2573 15.117 17.0333 15.7431 14.3772 14.9543C14.2472 14.9157 14.1066 14.9408 13.9979 15.0219C13.8892 15.103 13.8252 15.2306 13.8252 15.3663V18.2419C13.8252 18.4792 14.0176 18.6716 14.2549 18.6716C14.4922 18.6716 14.6846 18.4792 14.6846 18.2419V15.9206C16.1732 16.2495 17.8593 16.1962 19.3029 15.7623C20.7767 15.3194 21.8849 14.5257 22.514 13.4816C23.1427 14.5256 24.2507 15.3194 25.7243 15.7623C27.1679 16.1963 28.8539 16.2494 30.3425 15.9206V24.1138C30.3425 24.88 30.2283 25.6168 30.0024 26.3108C29.7245 26.1628 29.4276 26.0458 29.1163 25.9647C29.3005 25.3798 29.394 24.7595 29.394 24.1138V17.488C29.394 17.37 29.3455 17.2572 29.2598 17.1761C29.1741 17.0949 29.0586 17.0522 28.9411 17.0589C26.546 17.1887 24.2482 16.5189 22.7945 15.2672C22.6334 15.1285 22.395 15.1284 22.2339 15.2671C20.7791 16.5189 18.4814 17.1888 16.0872 17.0589C15.9693 17.0527 15.8541 17.0949 15.7684 17.1761C15.6828 17.2572 15.6343 17.37 15.6343 17.488V24.1138C15.6343 25.0284 15.8097 25.8541 16.17 26.6373C17.3042 29.116 20.2212 30.8444 22.3166 31.9288C22.3785 31.9609 22.4463 31.9769 22.5141 31.9769C22.5819 31.9769 22.6496 31.9609 22.7115 31.9289C23.2418 31.6546 23.7242 31.3887 24.1737 31.1235C24.2687 31.4294 24.3991 31.7199 24.5596 31.9906C23.9441 32.3506 23.2698 32.7133 22.514 33.0907C17.029 30.3531 14.6846 27.6612 14.6846 24.1138V22.1005C14.6846 21.8633 14.4922 21.6708 14.2549 21.6708C14.0176 21.6708 13.8252 21.8633 13.8252 22.1005V24.1138C13.8252 26.293 14.6251 28.1832 16.2704 29.8928C17.619 31.2939 19.5426 32.5849 22.3242 33.9557C22.3841 33.9853 22.4491 34 22.5141 34C22.5793 34 22.6444 33.9852 22.7044 33.9556C23.5906 33.5181 24.3704 33.1 25.0768 32.6835C25.8249 33.4925 26.8956 34 28.083 34C30.3392 34 32.1748 32.1681 32.1748 29.9163C32.1748 28.6751 31.6169 27.5616 30.7383 26.812ZM16.9512 26.2789C16.6433 25.6099 16.4937 24.9017 16.4937 24.1138V17.9327C17.57 17.949 18.6472 17.8153 19.6349 17.5419C20.7469 17.234 21.7137 16.7655 22.5141 16.1471C23.3141 16.7655 24.2806 17.2341 25.3925 17.5419C26.3804 17.8153 27.4577 17.9488 28.5347 17.9327V24.1138C28.5347 24.7292 28.4424 25.2957 28.2543 25.8365C28.1975 25.8342 28.1404 25.8327 28.083 25.8327C27.6153 25.8327 27.1658 25.9116 26.7468 26.0565C26.475 24.9713 25.7851 24.0216 24.8337 23.4202C25.2605 22.9027 25.5171 22.2405 25.5171 21.5196C25.5171 19.8668 24.17 18.5223 22.5142 18.5223C20.8584 18.5223 19.5112 19.8668 19.5112 21.5196C19.5112 22.2402 19.7677 22.9022 20.1942 23.4196C18.9367 24.2117 18.1514 25.5994 18.1514 27.1016V28.0013C17.6537 27.4742 17.2355 26.9004 16.9512 26.2789ZM20.3706 21.5196C20.3706 20.3407 21.3322 19.3817 22.5142 19.3817C23.6961 19.3817 24.6577 20.3407 24.6577 21.5196C24.6577 22.6977 23.6961 23.6562 22.5142 23.6562C21.3322 23.6562 20.3706 22.6977 20.3706 21.5196ZM22.5141 31.0627C21.416 30.4867 20.1165 29.7357 19.0107 28.8073V27.1016C19.0107 25.8137 19.7315 24.63 20.8659 24.0221C21.3394 24.3336 21.9058 24.5156 22.5141 24.5156C23.1225 24.5156 23.6887 24.3337 24.1622 24.0223C25.0884 24.5202 25.7486 25.4116 25.9502 26.4327C24.7762 27.1513 23.9912 28.444 23.9912 29.9164C23.9912 30.02 23.9952 30.1227 24.0028 30.2243C23.5478 30.5011 23.0573 30.7774 22.5141 31.0627ZM28.083 33.1406C26.3006 33.1406 24.8506 31.6942 24.8506 29.9163C24.8506 28.1385 26.3006 26.6921 28.083 26.6921C29.8653 26.6921 31.3154 28.1385 31.3154 29.9163C31.3154 31.6942 29.8654 33.1406 28.083 33.1406Z" fill="white"/>
<path d="M29.8168 28.4533C29.6351 28.3007 29.364 28.3243 29.2114 28.5061L27.5846 30.4435L26.9032 29.8662C26.7222 29.7129 26.4509 29.7352 26.2976 29.9163C26.1442 30.0973 26.1666 30.3684 26.3477 30.5219L27.3584 31.3782C27.4363 31.4442 27.5348 31.48 27.6361 31.48C27.6482 31.48 27.6603 31.4795 27.6725 31.4784C27.7864 31.4688 27.8917 31.4142 27.9652 31.3266L29.8695 29.0587C30.0222 28.8769 29.9986 28.6059 29.8168 28.4533Z" fill="white"/>
<path d="M14.2549 20.6009C14.4922 20.6009 14.6846 20.4085 14.6846 20.1712V20.17C14.6846 19.9327 14.4922 19.741 14.2549 19.741C14.0176 19.741 13.8252 19.9339 13.8252 20.1713C13.8252 20.4086 14.0176 20.6009 14.2549 20.6009Z" fill="white"/>
</g>
<defs>
<linearGradient id="paint0_linear" x1="-6.85453e-07" y1="46" x2="53.6955" y2="33.7604" gradientUnits="userSpaceOnUse">
<stop stop-color="#65E1FE"/>
<stop offset="1" stop-color="#1EB5D8"/>
</linearGradient>
<clipPath id="clip0">
<rect width="22" height="22" fill="white" transform="translate(12 12)"/>
</clipPath>
</defs>
</svg>
