<svg width="46" height="46" viewBox="0 0 46 46" fill="none" xmlns="http://www.w3.org/2000/svg">
<circle cx="23" cy="23" r="23" fill="url(#paint0_linear)"/>
<path d="M28.83 18.5625C27.0215 18.5625 25.5488 17.0907 25.5488 15.2812C25.5488 13.4718 27.0215 12 28.83 12C30.6387 12 32.1113 13.4718 32.1113 15.2812C32.1113 17.0907 30.6387 18.5625 28.83 18.5625ZM28.83 13.3125C27.7451 13.3125 26.8613 14.1953 26.8613 15.2812C26.8613 16.3672 27.7451 17.25 28.83 17.25C29.915 17.25 30.7988 16.3672 30.7988 15.2812C30.7988 14.1953 29.915 13.3125 28.83 13.3125Z" fill="white"/>
<path d="M28.83 33C27.0215 33 25.5488 31.5282 25.5488 29.7188C25.5488 27.9093 27.0215 26.4375 28.83 26.4375C30.6387 26.4375 32.1113 27.9093 32.1113 29.7188C32.1113 31.5282 30.6387 33 28.83 33ZM28.83 27.75C27.7451 27.75 26.8613 28.6328 26.8613 29.7188C26.8613 30.8047 27.7451 31.6875 28.83 31.6875C29.915 31.6875 30.7988 30.8047 30.7988 29.7188C30.7988 28.6328 29.915 27.75 28.83 27.75Z" fill="white"/>
<path d="M16.1426 25.7812C14.3339 25.7812 12.8613 24.3095 12.8613 22.5C12.8613 20.6905 14.3339 19.2188 16.1426 19.2188C17.9513 19.2188 19.4238 20.6905 19.4238 22.5C19.4238 24.3095 17.9513 25.7812 16.1426 25.7812ZM16.1426 20.5312C15.0576 20.5312 14.1738 21.414 14.1738 22.5C14.1738 23.586 15.0576 24.4688 16.1426 24.4688C17.2276 24.4688 18.1113 23.586 18.1113 22.5C18.1113 21.414 17.2276 20.5312 16.1426 20.5312Z" fill="white"/>
<path d="M18.4273 21.8611C18.1988 21.8611 17.9766 21.7421 17.8568 21.5304C17.6773 21.2155 17.7867 20.8146 18.1017 20.6353L26.2209 16.0065C26.5349 15.8254 26.9366 15.9357 27.115 16.2516C27.2945 16.5666 27.1851 16.9673 26.8701 17.1467L18.7509 21.7754C18.6486 21.8331 18.5375 21.8611 18.4273 21.8611Z" fill="white"/>
<path d="M26.5455 29.0803C26.4353 29.0803 26.3241 29.0523 26.2217 28.9938L18.1026 24.365C17.7876 24.1857 17.6783 23.7848 17.8576 23.4698C18.0361 23.1541 18.4369 23.0446 18.7519 23.2249L26.8709 27.8535C27.1859 28.033 27.2954 28.4337 27.1161 28.7487C26.9953 28.9613 26.7731 29.0803 26.5455 29.0803Z" fill="white"/>
<defs>
<linearGradient id="paint0_linear" x1="-6.85453e-07" y1="46" x2="53.6955" y2="33.7604" gradientUnits="userSpaceOnUse">
<stop stop-color="#65E1FE"/>
<stop offset="1" stop-color="#1EB5D8"/>
</linearGradient>
</defs>
</svg>
