<svg width="46" height="46" viewBox="0 0 46 46" fill="none" xmlns="http://www.w3.org/2000/svg">
<circle cx="23" cy="23" r="23" fill="url(#paint0_linear)"/>
<path d="M25.0197 15.5H25.0198C25.5563 15.4999 26.0817 15.7112 26.4966 16.1061C26.9127 16.502 27.1886 17.0556 27.2631 17.6674L27.3475 18.3609L27.9767 18.0573L32.2734 15.9843L32.2738 15.9841C32.4045 15.9209 32.5452 15.8951 32.6839 15.9069C32.8228 15.9187 32.9599 15.9682 33.0825 16.0546C33.2054 16.1412 33.3107 16.2629 33.3852 16.4117C33.4597 16.5606 33.4999 16.7298 33.5 16.9035C33.5 16.9036 33.5 16.9036 33.5 16.9037V28.096C33.4998 28.2697 33.4597 28.4388 33.3851 28.5876C33.3107 28.7363 33.2055 28.8579 33.0827 28.9445C32.9602 29.0309 32.8233 29.0804 32.6845 29.0923C32.5459 29.1042 32.4053 29.0786 32.2747 29.0156L32.2747 29.0156L27.9766 26.9426L27.3475 26.6391L27.2631 27.3325C27.1886 27.9443 26.9127 28.498 26.4966 28.8938C26.0817 29.2887 25.5563 29.5 25.0198 29.4999H25.0197H14.658C14.0716 29.4999 13.5001 29.2474 13.0719 28.7825C12.6424 28.3162 12.3948 27.6756 12.3948 26.9999V18C12.3948 17.3243 12.6424 16.6837 13.0719 16.2174C13.5001 15.7525 14.0716 15.5 14.658 15.5H25.0197Z" stroke="white"/>
<defs>
<linearGradient id="paint0_linear" x1="-6.85453e-07" y1="46" x2="53.6955" y2="33.7604" gradientUnits="userSpaceOnUse">
<stop stop-color="#65E1FE"/>
<stop offset="1" stop-color="#1EB5D8"/>
</linearGradient>
</defs>
</svg>
