<svg width="46" height="46" viewBox="0 0 46 46" fill="none" xmlns="http://www.w3.org/2000/svg">
<circle cx="23" cy="23" r="23" fill="url(#paint0_linear)"/>
<g clip-path="url(#clip0)">
<path d="M29.4547 19.2009L30.2358 18.4197C30.5394 18.1162 30.5394 17.624 30.2358 17.3206C29.9323 17.0171 29.4403 17.0171 29.1367 17.3206L28.3556 18.1018C27.045 17.0098 25.4525 16.3501 23.7538 16.1957V14.6314H24.5051C24.9344 14.6314 25.2823 14.2833 25.2823 13.8541C25.2823 13.4248 24.9344 13.0769 24.5051 13.0769H21.4479C21.0187 13.0769 20.6707 13.4248 20.6707 13.8541C20.6707 14.2833 21.0187 14.6314 21.4479 14.6314H22.1993V16.1957C17.9469 16.5824 14.5565 20.1547 14.5565 24.5799C14.5565 29.2335 18.3223 33 22.9766 33C27.6301 33 31.3965 29.2342 31.3965 24.5799C31.3965 22.592 30.7119 20.7095 29.4547 19.2009ZM22.9764 31.4455C19.1908 31.4455 16.1109 28.3656 16.1109 24.5799C16.1109 20.7943 19.1908 17.7145 22.9764 17.7145C26.7622 17.7145 29.842 20.7943 29.842 24.5799C29.842 28.3656 26.7622 31.4455 22.9764 31.4455ZM26.5784 20.9781C26.8819 21.2816 26.8819 21.7738 26.5784 22.0772L23.5261 25.1295C23.2225 25.4331 22.7303 25.4331 22.4269 25.1295C22.1234 24.826 22.1234 24.3338 22.4269 24.0304L25.4791 20.9781C25.7827 20.6745 26.2749 20.6745 26.5784 20.9781Z" fill="white"/>
</g>
<defs>
<linearGradient id="paint0_linear" x1="-6.85453e-07" y1="46" x2="53.6955" y2="33.7604" gradientUnits="userSpaceOnUse">
<stop stop-color="#65E1FE"/>
<stop offset="1" stop-color="#1EB5D8"/>
</linearGradient>
<clipPath id="clip0">
<rect width="19.9231" height="19.9231" fill="white" transform="translate(13 13.0769)"/>
</clipPath>
</defs>
</svg>
