<svg width="46" height="46" viewBox="0 0 46 46" fill="none" xmlns="http://www.w3.org/2000/svg">
<circle cx="23" cy="23" r="23" fill="url(#paint0_linear)"/>
<path d="M31.902 31.2356L26.5855 25.919C27.6153 24.6469 28.2353 23.0305 28.2353 21.27C28.2353 17.1897 24.9153 13.8696 20.835 13.8696C16.7548 13.8696 13.4348 17.1896 13.4348 21.27C13.4348 25.3503 16.7548 28.6703 20.8351 28.6703C22.5956 28.6703 24.2119 28.0503 25.484 27.0205L30.8005 32.337C30.9524 32.4889 31.1518 32.5653 31.3513 32.5653C31.5507 32.5653 31.7501 32.4889 31.902 32.337C32.2066 32.0325 32.2066 31.5401 31.902 31.2356ZM20.8351 27.1124C17.6132 27.1124 14.9927 24.4919 14.9927 21.27C14.9927 18.0481 17.6132 15.4276 20.8351 15.4276C24.0569 15.4276 26.6774 18.0481 26.6774 21.27C26.6774 24.4919 24.0569 27.1124 20.8351 27.1124Z" fill="white"/>
<defs>
<linearGradient id="paint0_linear" x1="-6.85453e-07" y1="46" x2="53.6955" y2="33.7604" gradientUnits="userSpaceOnUse">
<stop stop-color="#65E1FE"/>
<stop offset="1" stop-color="#1EB5D8"/>
</linearGradient>
</defs>
</svg>
